<svg xmlns="http://www.w3.org/2000/svg" viewBox="0 0 350.162 350.162"><path d="M285.744 240.544H172.615l-.409 80.153h95.235a32.085 32.085 0 0027.83-16.119l13.881-24.196-.752-.427-22.656-39.411zM121.057 142.463l-69.291-40.294-47.498 82.626a32.086 32.086 0 00.044 32.057l13.707 23.693h46.668l56.37-98.082zM175.206 48.257c.007 0 56.147 97.672 56.147 97.672l69.705-39.595-47.467-82.576a32.083 32.083 0 00-27.816-16.095h-27.677v.769l-22.892 39.825z" fill="#2b7b57"/><path d="M147.157 218.737h-.414a8.817 8.817 0 00-8.817 8.817v12.991H18.027l39.661 68.548a23.249 23.249 0 0020.123 11.606h60.116v12.984a8.817 8.817 0 008.817 8.817h.01a8.817 8.817 0 006.234-2.582l53.266-53.266a8.817 8.817 0 00-.001-12.47l-33.645-33.636-19.214-19.224a8.814 8.814 0 00-6.237-2.585zM152.652 131.258l.203-.353a8.816 8.816 0 00-3.252-12.038l-11.264-6.472 36.866-64.138 22.891-39.828v-.766h-73.89A32.084 32.084 0 0096.28 23.951L68.85 72.443l-11.261-6.47a8.817 8.817 0 00-12.036 3.249l-.005.009a8.816 8.816 0 00-.869 6.694l7.086 26.244 12.545 46.476a8.817 8.817 0 0010.81 6.215l72.185-19.483a8.815 8.815 0 005.347-4.119zM318.131 136.056l11.266-6.476a8.817 8.817 0 00-2.095-16.156l-72.734-19.641a8.817 8.817 0 00-10.811 6.214l-19.483 72.174a8.82 8.82 0 00.868 6.692l.205.356a8.818 8.818 0 0012.037 3.251l11.258-6.47 37.102 64.544 22.655 39.411.752.427 36.757-64.08a32.085 32.085 0 00-.015-31.955l-27.762-48.291z" fill="#49b86e"/></svg>
